<svg width="55" height="49" viewBox="0 0 55 49" xmlns="http://www.w3.org/2000/svg"><title>logo</title><path d="M43.452 2c3.076 2.116 11.01 7.778 10.668 23.106-.29 12.902-5.31 17.897-7.977 20.123-5.19 4.332-15.28 3.85-21.24-.193 0 0 9.803-.193 9.9-5.392.095-5.2-10.862-1.155-10.862-1.155s-8.36.962-9.033-2.31c0 0 5.48-1.06 5.575-4.72.192-1.828-.478-3.27-2.595-5.39-1.826-1.83-4.9-1.83-5.96-1.252-1.056.577-.383.192-2.882 3.08-2.5 2.89-5.574 1.06-5.574 1.06l-3.267-2.31c10.284.962 7.593-5.682 7.88-7.8.17-1.235 2.006-6.37 7.113-2.503 11.82 8.954 12.402.927 12.302-1.252-.234-5.088-2.69-6.547-9.803-5.68-.113.013 1.826-7.125 7.4-5.488 3.713 1.09 10.67 6.065 12.783 1.444.48-1.927-4.517-4.14-4.517-4.14L31.824.457c3.555-.866 8.544-.584 11.63 1.54z" fill="#FFF" fill-rule="evenodd"/></svg>