<svg width="331" height="396" viewBox="0 0 331 396" xmlns="http://www.w3.org/2000/svg"><title>Slice 1</title><g fill="none" fill-rule="evenodd"><g fill="#F1C40F"><path fill-opacity=".55" d="M248.544 33.09l3.4 4.05-2.803 4.487-5.132-1.28-.37-5.277z"/><path fill-opacity=".35" d="M154.544 47.09l3.4 4.05-2.803 4.487-5.132-1.28-.37-5.277z"/><path fill-opacity=".45" d="M174.544 79.09l3.4 4.05-2.803 4.487-5.132-1.28-.37-5.277z"/><path fill-opacity=".5" d="M110.59 98.134l3.4 4.052-2.804 4.486-5.133-1.28-.37-5.277z"/><path fill-opacity=".25" d="M202.544 148.09l3.4 4.05-2.803 4.487-5.132-1.28-.37-5.277z"/><path fill-opacity=".15" d="M88.544 213.09l3.4 4.05-2.803 4.487-5.132-1.28-.37-5.277z"/></g><path d="M110 128H63v7H43v6h8v7h117v-8h-1v-12h-1v-8H98v5h12v3zm24 39h32v-9h1v-5h-2v-5H36v7h40v3h8v7H69v6h65v-4z" fill="#238F51"/><path d="M255 142h8l5-10H162v10h39v4h54v-4zm2-13h37l5-6H167v6h4v3h86v-3zm10.625-19l4.375-7h-46v-3h6l5-6h-70v4h-1v7h1v6h2v4h113l5-5h-19.375zM165 115h111l-5 8H165v-8zM168 66v8h-1v4H61v-6h16v-7h39v-3h-8v-5h57v4h11v5h-8zm-59 20h58v-8H66v5H52v6h57v-3z" fill="#238F51"/><path d="M197.902 238l-8.933-26.878-12.836-34.157-2.13-28.216v-25.682l35.113-.263 20.083 8.43 9.286-2.514v-1.95c-.744.2-8.815 1.597-8.815 1.597l-12.862-7.92 8.758-3.763-2.114-1.306-8.813 3.332-7.127-3.834-34.625-4.925-2.2-36.058s29.534-2.905 30.214-2.905c.68 0 10.24-5.133 10.24-5.133l-40.887-1.532s-.5-19.075-.5-21.394C169.128 36.172 166.88 2 166.88 2h-5.933l-.93 40.626-1.107 31.01-23.577-2.312s-12.368 2.946-12.957 2.946c-.59 0-3.863-2.538-3.863-2.538l-.9 1.318 3.706 2.82 10.89-1.074-3.193 3.355 1.085 1.102 5.6-4.476 22.913 6.606-2.718 48.957-31.73 12.077s-4.602.188-6.025.188c-1.424 0-5.88-5.2-5.88-5.2l-1.92 1.38 4.24 4.012-14.493-1.6-5.09 4.11 1.734 1.505 4.46-2.88 20.125 4.817 34.174-5.37-1.64 32.748-6.84 21.7-14.803 23.043-4.298 17.13h69.99z" fill="#353A47"/><path d="M233.364 74h.5v-3h29l5.444-7h7.556l5-5h-49v3h-44v9h3v2h-7v4h16v2h42l5-5h-13.5zM191.5 45h.5l2-2h25l3.57-5h7.015L236 33h-68v3h-12v5h-9v4h6v1h16v3h33l4-4h-14.5zM176 30h42l-4 3h-38v-3zM172.5 21h3.5l2.857-4H213l3.333-6H226l5-6h-14V3h-15l3-3h-56v5h18-8v3h-43v6h-13v7h9v2h16v3h53l5-5h-13.5z" fill="#2ECC71"/><g fill="#2ECC71"><path d="M208.046 246.376l4.887-10.43-6.68 3.51-3.724 6.517-6.42.403-1.347-6.403-2.91 6.403h-6.865l1.866-6.403-3.995 1.774-1.866 4.63h-18.868v-8.205l-3.64 3.575-1.618 4.63-33.724-.404-.552-9.652-5.888 9.653h-7.81l3.354-18.448-4.903 7.194-2.593 11.253-15.047.403-5-4.63h5.057l2.67-7.027 4.813 7.027 8.93-21.093 13.51-11.03-2.55 25.095 9.983-15.243 1.532 15.242 7.875-9.452 2.97 12.757 3.186-8.015 6.216-4.227 3.47 6.824 6.12-8.49 8.637-5.284 1.08 14.646 4.584-7.697 12.627-6.306-2.555 10.533 3.554 4.322 6.84-13.678 15.435-7.966-6.16 13.095 1.724 8.936 11.767-7.195 8.912-3.408-4.953 14.055 14.854-2.227-4.513 6.94c-.49.754 4.514 3.49 4.514 3.49h-26.787z"/><path d="M210.168 221.778l.742-6.443 7.79-2.977-1.177 5.76-7.355 3.66zM224.784 208.216l-3.077 3.585.002 6.096s5.905-2.83 5.905-3.123c0-.294 1.13-9.03 1.13-9.03l-3.96 2.473zM244.165 207.06l-6.444 2.604.557 6.073 9.46-2.66 3.54-9.17-7.112 3.153z"/></g><g><path d="M49.11 386.69h5.43c-.134 1.54-.504 2.803-1.107 3.788-1.137 1.857-2.824 2.786-5.063 2.786-1.886 0-3.44-.636-4.658-1.908-1.22-1.27-1.828-2.894-1.828-4.87 0-1.07.208-2.117.624-3.136.41-.996.984-1.83 1.723-2.496 1.237-1.13 2.77-1.697 4.597-1.697 2.24 0 4.093.91 5.564 2.734l-1.31 1.337c-1.106-1.454-2.536-2.18-4.288-2.18-1.447 0-2.622.5-3.524 1.503-.908 1.013-1.362 2.31-1.362 3.893 0 1.453.424 2.64 1.274 3.56.85.92 1.954 1.38 3.313 1.38.96 0 1.782-.264 2.46-.79.675-.53 1.11-1.25 1.302-2.163H48.89l.22-1.74zm31.12-7.26l-1.776 14.502-8.236-10.512L69.04 393H67.03l1.766-14.31 8.236 10.496 1.195-9.756h2.004zm24.325 0l-7.725 14.185-4.272-14.185h2.04l2.812 9.457 4.974-9.457h2.17zm12.356 11.065l-3.084 5.168-1.195-.65 2.778-5.353 1.503.835zm38.51-11.065l-.227 1.872H150.5l-.43 3.498h4.692l-.21 1.74h-4.703l-.792 6.46h-2.013l1.68-13.57h6.696zm14.976 0l-1.433 11.698h3.84l-.227 1.872h-5.854l1.67-13.57h2.004zm28.325 6.52c0 1.548-.41 2.95-1.23 4.21-.65.99-1.5 1.756-2.548 2.295-1.05.54-2.21.81-3.48.81-2.034 0-3.692-.65-4.975-1.944-1.283-1.3-1.925-2.98-1.925-5.044 0-2.056.68-3.755 2.04-5.097 1.365-1.35 3.087-2.023 5.167-2.023 2.08 0 3.758.624 5.035 1.872 1.278 1.24 1.916 2.882 1.916 4.92zm-2.02-.016c0-1.483-.44-2.67-1.318-3.56-.88-.885-2.06-1.327-3.542-1.327-1.49 0-2.74.498-3.753 1.494-1.002.997-1.503 2.242-1.503 3.736 0 1.477.466 2.7 1.397 3.665.933.962 2.11 1.443 3.534 1.443 1.483 0 2.716-.52 3.7-1.556.99-1.025 1.486-2.323 1.486-3.893zm19.853 1.344l3.41 5.722h-2.127l-3.217-5.58h-.73l-.686 5.58h-2.013l1.67-13.57h2.664c.868 0 1.556.08 2.066.237.504.146.943.416 1.318.81.71.725 1.064 1.663 1.064 2.81 0 2.105-1.14 3.435-3.42 3.99zm-1.916-5.976l-.528 4.36h.922c.68 0 1.187-.065 1.52-.194.358-.13.657-.35.897-.66.327-.433.49-.943.49-1.53 0-.684-.196-1.185-.592-1.502-.395-.316-1.018-.474-1.868-.474h-.843zm21.76-1.872l-1.67 13.57h-2.013l1.67-13.57h2.013zm14.06 0h2.743c1.037 0 1.833.052 2.39.158.568.1 1.093.29 1.573.57.885.51 1.582 1.276 2.092 2.295.51 1.02.765 2.16.765 3.42 0 1.335-.287 2.57-.862 3.708a6.91 6.91 0 0 1-1 1.482 5.77 5.77 0 0 1-1.31 1.085 5.904 5.904 0 0 1-1.803.677c-.334.06-.732.103-1.195.132-.463.03-1.005.044-1.626.044h-3.437l1.67-13.57zm1.776 1.872l-1.204 9.826h1.528c1.125 0 2.004-.11 2.637-.334.615-.217 1.15-.62 1.608-1.213.797-1.007 1.195-2.27 1.195-3.787 0-.943-.178-1.77-.536-2.48-.363-.72-.855-1.24-1.476-1.563-.592-.3-1.468-.448-2.628-.448h-1.125zm22.357 8.508l-1.652 3.19h-2.188l7.505-14.537L282.94 393h-2.1l-.985-3.19h-5.265zm.87-1.74h3.832l-1.46-4.826-2.372 4.825z" fill="#F62D4F"/><path d="M.16 351v-2.32c2.133-1.013 4.32-1.653 6.56-1.92v-47.44a32.97 32.97 0 0 1-3.28-.84 43.304 43.304 0 0 1-3.28-1.16V295h8.48c1.013 0 1.987-.027 2.92-.08a460.5 460.5 0 0 1 6.2-.32 89.03 89.03 0 0 1 4-.08c2.133 0 4.307.173 6.52.52 2.213.347 4.213 1 6 1.96s3.24 2.307 4.36 4.04 1.68 3.987 1.68 6.76a14.08 14.08 0 0 1-.64 4.16 12.977 12.977 0 0 1-1.96 3.88c-.88 1.2-1.987 2.253-3.32 3.16-1.333.907-2.907 1.573-4.72 2v.32c1.6.267 3.187.72 4.76 1.36a14.427 14.427 0 0 1 4.2 2.6c1.227 1.093 2.227 2.44 3 4.04.773 1.6 1.16 3.52 1.16 5.76 0 2.88-.64 5.36-1.92 7.44a16.083 16.083 0 0 1-5 5.12c-2.053 1.333-4.387 2.307-7 2.92a34.55 34.55 0 0 1-7.92.92 93.83 93.83 0 0 1-6.32-.24 100.04 100.04 0 0 0-6.8-.24H.16zm21.36-3.68c1.92 0 3.72-.293 5.4-.88 1.68-.587 3.12-1.4 4.32-2.44a11.313 11.313 0 0 0 2.84-3.76c.693-1.467 1.04-3.053 1.04-4.76 0-2.133-.413-3.907-1.24-5.32a9.227 9.227 0 0 0-3.36-3.36c-1.413-.827-3.04-1.4-4.88-1.72-1.84-.32-3.747-.48-5.72-.48h-6v22.08c.747.213 1.64.373 2.68.48 1.04.107 2.68.16 4.92.16zm-3.6-26.88c.907 0 1.987-.04 3.24-.12 1.253-.08 2.28-.173 3.08-.28 2.453-.853 4.467-2.227 6.04-4.12 1.573-1.893 2.36-4.12 2.36-6.68 0-3.52-1.053-6.16-3.16-7.92-2.107-1.76-4.92-2.64-8.44-2.64-1.653 0-3.067.027-4.24.08-1.173.053-2.133.133-2.88.24v21.44h4zm65.92 20.08c0 1.173.027 2.187.08 3.04.053.853.107 1.76.16 2.72l5.52.8v1.68a29.62 29.62 0 0 1-4.44 1.84 34.562 34.562 0 0 1-4.68 1.2h-2c-.533-1.227-.853-2.573-.96-4.04a115.24 115.24 0 0 1-.24-4.84h-.4c-.213 1.067-.627 2.147-1.24 3.24a10.885 10.885 0 0 1-2.4 2.92c-.987.853-2.147 1.547-3.48 2.08-1.333.533-2.853.8-4.56.8-3.253 0-5.907-.987-7.96-2.96-2.053-1.973-3.08-4.56-3.08-7.76 0-2.453.493-4.467 1.48-6.04.987-1.573 2.44-2.813 4.36-3.72 1.92-.907 4.293-1.56 7.12-1.96 2.827-.4 6.107-.707 9.84-.92.213-2.293.28-4.36.2-6.2-.08-1.84-.373-3.413-.88-4.72s-1.253-2.32-2.24-3.04c-.987-.72-2.28-1.08-3.88-1.08-.747 0-1.587.04-2.52.12a9.303 9.303 0 0 0-2.76.68l-3.76 9.6h-2.08c-.533-1.6-1-3.253-1.4-4.96a30.744 30.744 0 0 1-.76-5.04c2.027-1.227 4.28-2.187 6.76-2.88 2.48-.693 5.24-1.04 8.28-1.04 2.72 0 4.893.387 6.52 1.16 1.627.773 2.867 1.773 3.72 3a10.197 10.197 0 0 1 1.68 4.08c.267 1.493.4 2.987.4 4.48 0 3.2-.067 6.28-.2 9.24s-.2 5.8-.2 8.52zM68.4 347c1.333 0 2.507-.267 3.52-.8s1.867-1.173 2.56-1.92a11.627 11.627 0 0 0 1.68-2.28c.427-.773.72-1.427.88-1.96v-8.4c-3.093 0-5.627.16-7.6.48-1.973.32-3.52.827-4.64 1.52-1.12.693-1.893 1.56-2.32 2.6-.427 1.04-.64 2.227-.64 3.56 0 2.293.587 4.067 1.76 5.32 1.173 1.253 2.773 1.88 4.8 1.88zm46.56-30c-.587.32-1.32.973-2.2 1.96-.88.987-1.667 2.44-2.36 4.36v23.76c1.067.107 2.133.307 3.2.6 1.067.293 2.133.733 3.2 1.32v2H97.92v-2c.96-.533 1.867-.933 2.72-1.2a45.924 45.924 0 0 1 2.56-.72v-31.44l-5.28-.64v-2.08a33.298 33.298 0 0 1 5.28-1.8 62.566 62.566 0 0 1 5.2-1.08h2v8.48h.32c.48-1.067 1.16-2.133 2.04-3.2a17.342 17.342 0 0 1 3.04-2.88 13.306 13.306 0 0 1 3.76-1.96 9.73 9.73 0 0 1 4.2-.44c.373.693.707 1.453 1 2.28.293.827.573 1.693.84 2.6V317h-10.64zm49.36 28.4c-.96 1.867-2.52 3.427-4.68 4.68-2.16 1.253-4.68 1.88-7.56 1.88-3.147 0-5.88-.493-8.2-1.48-2.32-.987-4.253-2.4-5.8-4.24-1.547-1.84-2.707-4.053-3.48-6.64-.773-2.587-1.16-5.453-1.16-8.6 0-6.773 1.653-11.96 4.96-15.56 3.307-3.6 7.813-5.4 13.52-5.4 2.613 0 4.947.227 7 .68 2.053.453 3.8 1.053 5.24 1.8-.16 1.76-.453 3.733-.88 5.92s-.96 4-1.6 5.44h-2.16l-3.36-9.52a4.042 4.042 0 0 0-1.28-.6c-.48-.133-1.28-.2-2.4-.2-3.627 0-6.427 1.32-8.4 3.96-1.973 2.64-2.96 7.107-2.96 13.4 0 2.027.28 4 .84 5.92.56 1.92 1.413 3.64 2.56 5.16a12.716 12.716 0 0 0 4.32 3.64c1.733.907 3.747 1.36 6.04 1.36 1.867 0 3.493-.267 4.88-.8s2.56-1.173 3.52-1.92l1.04 1.12zm39.92-4.88c0 1.173.027 2.187.08 3.04.053.853.107 1.76.16 2.72l5.52.8v1.68a29.62 29.62 0 0 1-4.44 1.84 34.562 34.562 0 0 1-4.68 1.2h-2c-.533-1.227-.853-2.573-.96-4.04a115.24 115.24 0 0 1-.24-4.84h-.4c-.213 1.067-.627 2.147-1.24 3.24a10.885 10.885 0 0 1-2.4 2.92c-.987.853-2.147 1.547-3.48 2.08-1.333.533-2.853.8-4.56.8-3.253 0-5.907-.987-7.96-2.96-2.053-1.973-3.08-4.56-3.08-7.76 0-2.453.493-4.467 1.48-6.04.987-1.573 2.44-2.813 4.36-3.72 1.92-.907 4.293-1.56 7.12-1.96 2.827-.4 6.107-.707 9.84-.92.213-2.293.28-4.36.2-6.2-.08-1.84-.373-3.413-.88-4.72s-1.253-2.32-2.24-3.04c-.987-.72-2.28-1.08-3.88-1.08-.747 0-1.587.04-2.52.12a9.303 9.303 0 0 0-2.76.68l-3.76 9.6h-2.08c-.533-1.6-1-3.253-1.4-4.96a30.744 30.744 0 0 1-.76-5.04c2.027-1.227 4.28-2.187 6.76-2.88 2.48-.693 5.24-1.04 8.28-1.04 2.72 0 4.893.387 6.52 1.16 1.627.773 2.867 1.773 3.72 3a10.197 10.197 0 0 1 1.68 4.08c.267 1.493.4 2.987.4 4.48 0 3.2-.067 6.28-.2 9.24s-.2 5.8-.2 8.52zM188.8 347c1.333 0 2.507-.267 3.52-.8s1.867-1.173 2.56-1.92a11.627 11.627 0 0 0 1.68-2.28c.427-.773.72-1.427.88-1.96v-8.4c-3.093 0-5.627.16-7.6.48-1.973.32-3.52.827-4.64 1.52-1.12.693-1.893 1.56-2.32 2.6-.427 1.04-.64 2.227-.64 3.56 0 2.293.587 4.067 1.76 5.32 1.173 1.253 2.773 1.88 4.8 1.88zm70.88 4h-17.12v-2a18.82 18.82 0 0 1 1.96-1c.773-.347 1.693-.653 2.76-.92V328.6c0-2.133-.093-4.053-.28-5.76-.187-1.707-.533-3.133-1.04-4.28-.507-1.147-1.24-2.027-2.2-2.64-.96-.613-2.213-.92-3.76-.92-1.173 0-2.253.24-3.24.72a9.315 9.315 0 0 0-2.64 1.92c-.773.8-1.44 1.707-2 2.72-.56 1.013-1 2.08-1.32 3.2v23.52a43.3 43.3 0 0 1 2.44.84c.773.293 1.533.653 2.28 1.08v2h-17.2v-2a21.7 21.7 0 0 1 2.48-1.04 42.95 42.95 0 0 1 2.8-.88v-31.44l-5.28-.64v-2.08a33.78 33.78 0 0 1 5.24-1.8 57.26 57.26 0 0 1 5.24-1.08h2v9.04h.08c.853-2.507 2.307-4.64 4.36-6.4 2.053-1.76 4.6-2.64 7.64-2.64 1.28 0 2.507.133 3.68.4a9.1 9.1 0 0 1 3.28 1.48c1.013.72 1.867 1.72 2.56 3 .693 1.28 1.2 2.933 1.52 4.96.96-2.933 2.507-5.307 4.64-7.12 2.133-1.813 4.8-2.72 8-2.72 1.973 0 3.693.253 5.16.76s2.68 1.4 3.64 2.68c.96 1.28 1.667 3.013 2.12 5.2.453 2.187.68 4.96.68 8.32v20.08c1.813.32 3.573.96 5.28 1.92v2h-17.2v-2c1.6-.853 3.173-1.493 4.72-1.92v-19.92c0-1.92-.093-3.627-.28-5.12-.187-1.493-.547-2.76-1.08-3.8s-1.28-1.84-2.24-2.4c-.96-.56-2.24-.84-3.84-.84-2.56 0-4.547.88-5.96 2.64-1.413 1.76-2.44 4-3.08 6.72v22.72a35.05 35.05 0 0 1 5.2 1.92v2zm49.44 16h-17.76v-2c1.813-.853 3.573-1.493 5.28-1.92v-47.44l-5.28-.64v-2.08a33.78 33.78 0 0 1 5.24-1.8 57.26 57.26 0 0 1 5.24-1.08h2V319h.08c1.067-2.72 2.56-4.893 4.48-6.52 1.92-1.627 4.427-2.44 7.52-2.44 4.747 0 8.427 1.573 11.04 4.72 2.613 3.147 3.92 8.267 3.92 15.36 0 3.36-.44 6.4-1.32 9.12-.88 2.72-2.133 5.013-3.76 6.88-1.627 1.867-3.6 3.307-5.92 4.32-2.32 1.013-4.893 1.52-7.72 1.52-1.973 0-3.52-.12-4.64-.36-1.12-.24-2.347-.653-3.68-1.24v12.72c.853.107 1.707.307 2.56.6s1.76.733 2.72 1.32v2zm4.24-52c-2.613 0-4.693.827-6.24 2.48-1.547 1.653-2.64 3.92-3.28 6.8v22.4c.96.587 2.04 1.027 3.24 1.32 1.2.293 2.76.44 4.68.44 1.76 0 3.347-.453 4.76-1.36 1.413-.907 2.613-2.187 3.6-3.84.987-1.653 1.747-3.587 2.28-5.8.533-2.213.8-4.653.8-7.32 0-2.187-.173-4.2-.52-6.04-.347-1.84-.907-3.44-1.68-4.8-.773-1.36-1.787-2.413-3.04-3.16-1.253-.747-2.787-1.12-4.6-1.12z" fill="#FFF"/><path d="M66.523 267.146L67.64 282h-1.917l-.606-8.648-5.256 9.597-2.908-9.598L54.245 282h-2.057l4.694-14.528 3.436 11.09 6.205-11.416zm13.66 11.664L78.53 282h-2.188l7.506-14.537L88.533 282h-2.1l-.985-3.19h-5.265zm.87-1.74h3.832l-1.46-4.826-2.372 4.825zm21.632-.792l3.41 5.722h-2.127l-3.217-5.58h-.728l-.686 5.58h-2.012l1.67-13.57h2.663c.867 0 1.555.08 2.065.237.504.146.943.416 1.318.81.71.725 1.064 1.663 1.064 2.81 0 2.105-1.14 3.435-3.42 3.99zm-1.916-5.976l-.528 4.36h.922c.68 0 1.187-.065 1.52-.194.358-.13.657-.35.897-.66.33-.433.494-.943.494-1.53 0-.684-.198-1.185-.594-1.502-.395-.316-1.018-.474-1.867-.474h-.844zm25.71-.66l-.274 2.198c-1.177-1.195-2.58-1.793-4.21-1.793-1.435 0-2.595.51-3.48 1.53-.89 1.013-1.336 2.334-1.336 3.963 0 1.523.428 2.713 1.283 3.568.85.85 2.05 1.275 3.604 1.275 1.295 0 2.437-.4 3.427-1.195l-.29 2.38c-1.248.464-2.41.696-3.49.696-1.968 0-3.553-.624-4.754-1.872-1.2-1.237-1.802-2.883-1.802-4.94 0-2.098.64-3.838 1.916-5.22 1.284-1.383 2.895-2.075 4.834-2.075 1.53 0 3.053.495 4.57 1.486zm19.635-1.212l-1.67 13.57h-2.012l.817-6.627h-5.607l-.81 6.627h-2.012l1.67-13.57h2.005l-.65 5.317h5.607l.65-5.317h2.013zm28.252 0l-1.67 13.57h-2.013l1.45-11.698h-2.67l.913-1.872h3.99zm18.116 11.698l-.237 1.872h-8.78l5.413-5.968a49.182 49.182 0 0 0 1.344-1.52c.334-.4.565-.7.694-.906.246-.392.37-.86.37-1.406 0-.334-.052-.634-.154-.9a1.898 1.898 0 0 0-.44-.682 1.902 1.902 0 0 0-.698-.43c-.276-.1-.583-.15-.923-.15-.38 0-.715.054-1.002.163a1.76 1.76 0 0 0-.724.506c-.197.23-.353.52-.47.875a5.546 5.546 0 0 0-.238 1.27h-1.907c.1-1.335.38-2.33.836-2.98.767-1.1 1.954-1.65 3.56-1.65 1.247 0 2.244.362 2.988 1.09.75.72 1.125 1.674 1.125 2.864 0 .773-.157 1.447-.467 2.02-.152.288-.397.64-.734 1.056-.338.416-.764.908-1.28 1.477l-3.138 3.4h4.86zm31.064 0L223.31 282h-8.78l5.413-5.968a49.182 49.182 0 0 0 1.345-1.52c.334-.4.566-.7.694-.906.247-.392.37-.86.37-1.406 0-.334-.052-.634-.154-.9a1.898 1.898 0 0 0-.44-.682 1.902 1.902 0 0 0-.698-.43c-.276-.1-.583-.15-.923-.15-.38 0-.715.054-1.002.163a1.76 1.76 0 0 0-.725.506c-.197.23-.353.52-.47.875a5.546 5.546 0 0 0-.238 1.27h-1.907c.1-1.335.378-2.33.835-2.98.767-1.1 1.954-1.65 3.56-1.65 1.248 0 2.244.362 2.988 1.09.75.72 1.125 1.674 1.125 2.864 0 .773-.156 1.447-.466 2.02-.152.288-.397.64-.734 1.056-.337.416-.763.908-1.28 1.477l-3.136 3.4h4.86zm19.496-6.012a12.87 12.87 0 0 1-.5 3.507c-.335 1.178-.766 2.118-1.293 2.82-.885 1.167-2.013 1.75-3.384 1.75-1.33 0-2.382-.533-3.155-1.6-.767-1.066-1.15-2.52-1.15-4.36 0-2.254.51-4.153 1.53-5.694 1.03-1.542 2.29-2.312 3.778-2.312 1.27 0 2.285.533 3.04 1.6.757 1.066 1.135 2.495 1.135 4.288zm-1.96-.096c0-1.254-.196-2.227-.59-2.918-.392-.71-.934-1.064-1.625-1.064-.943 0-1.74.62-2.39 1.863-.645 1.244-.967 2.77-.967 4.58 0 1.22.2 2.177.598 2.874.405.686.958 1.03 1.66 1.03.88 0 1.616-.5 2.207-1.495.33-.558.592-1.29.79-2.2.212-.92.318-1.81.318-2.67zm16.138-5.59L255.55 282h-2.01l1.45-11.698h-2.673l.914-1.872h3.99zm14.048 4.755c.205-.047.404-.082.598-.106a4.54 4.54 0 0 1 .545-.036c1.16 0 2.095.372 2.804 1.116.71.727 1.064 1.705 1.064 2.936 0 1.424-.484 2.63-1.45 3.62-.96.985-2.133 1.477-3.516 1.477-1.272 0-2.335-.42-3.19-1.256-.844-.833-1.266-1.884-1.266-3.156 0-1.235.586-2.65 1.758-4.244l4.218-5.695 1.52 1.196-3.084 4.15zm-2.46 4.684c0 .767.228 1.38.685 1.836.457.457 1.066.686 1.828.686.85 0 1.562-.3 2.136-.897.58-.598.87-1.333.87-2.206 0-.745-.237-1.36-.71-1.847-.47-.486-1.07-.73-1.803-.73-.826 0-1.532.31-2.118.933a3.13 3.13 0 0 0-.888 2.223z" fill="#F62D4F"/></g></g></svg>