<?xml version="1.0" encoding="UTF-8" standalone="no"?>
<svg width="55px" height="49px" viewBox="0 0 55 49" version="1.1" xmlns="http://www.w3.org/2000/svg" xmlns:xlink="http://www.w3.org/1999/xlink" xmlns:sketch="http://www.bohemiancoding.com/sketch/ns">
    <!-- Generator: Sketch 3.4.4 (17249) - http://www.bohemiancoding.com/sketch -->
    <title>logo</title>
    <desc>Created with Sketch.</desc>
    <defs></defs>
    <g id="Welcome" stroke="none" stroke-width="1" fill="none" fill-rule="evenodd" sketch:type="MSPage">
        <g id="barcamp-2016" sketch:type="MSArtboardGroup" transform="translate(-76.000000, -16.000000)" fill="#FFFFFF">
            <g id="Nav" sketch:type="MSLayerGroup">
                <g id="logo" sketch:type="MSShapeGroup">
                    <g id="left">
                        <path d="M119.45163,17.998826 C122.527629,20.1164626 130.462517,25.7775222 130.120284,41.1060086 C129.831333,54.0078868 124.810549,59.0027582 122.143385,61.2292021 C116.953533,65.5619913 106.861757,65.0805704 100.902394,61.0372496 C100.902394,61.0372496 110.706244,60.8442706 110.80256,55.6451289 C110.897853,50.4459871 99.9412719,54.4903343 99.9412719,54.4903343 C99.9412719,54.4903343 91.5801289,55.4521498 90.9069342,52.1797187 C90.9069342,52.1797187 96.3857369,51.1203871 96.4820539,47.4609714 C96.6736636,45.6317769 96.0035425,44.1895668 93.8866158,42.0688507 C92.0606899,40.2396561 88.9857159,40.2396561 87.9282771,40.8175666 C86.8708383,41.3954771 87.5440335,41.0095192 85.0449124,43.8990718 C82.5457913,46.7875979 79.4708173,44.9584033 79.4708173,44.9584033 L76.2032086,42.6477877 C86.4865948,43.6096033 83.7958643,36.9661984 84.083791,34.8475353 C84.2518336,33.612675 86.0890303,28.4771753 91.1958854,32.3449672 C103.017271,41.2989877 103.598247,33.2718823 103.497832,31.0926567 C103.264211,26.0054017 100.807101,24.5457414 93.6950065,25.4131204 C93.5822951,25.4264647 95.5209324,18.2882945 101.095028,19.9245101 C104.808359,21.0146362 111.763682,25.9900044 113.877535,21.3687732 C114.358095,19.4430891 109.360878,17.228963 109.360878,17.228963 L107.822879,16.4580735 C111.378414,15.5917209 116.367434,15.874004 119.45163,17.998826 Z" id="logo"></path>
                    </g>
                </g>
            </g>
        </g>
    </g>
</svg>