<?xml version="1.0" encoding="UTF-8" standalone="no"?>
<svg width="20px" height="20px" viewBox="0 0 20 20" version="1.1" xmlns="http://www.w3.org/2000/svg" xmlns:xlink="http://www.w3.org/1999/xlink" xmlns:sketch="http://www.bohemiancoding.com/sketch/ns">
    <!-- Generator: Sketch 3.4.4 (17249) - http://www.bohemiancoding.com/sketch -->
    <title>face icon</title>
    <desc>Created with Sketch.</desc>
    <defs></defs>
    <g id="Welcome" stroke="none" stroke-width="1" fill="none" fill-rule="evenodd" sketch:type="MSPage">
        <g id="barcamp-2016" sketch:type="MSArtboardGroup" transform="translate(-290.000000, -4469.000000)" fill="#FFFFFF">
            <g id="Help/FAQ-(multiple-bg-images)" sketch:type="MSLayerGroup" transform="translate(0.000000, 4078.000000)">
                <g id="volunteer" transform="translate(117.000000, 165.000000)" sketch:type="MSShapeGroup">
                    <g id="volunteer-button" transform="translate(142.000000, 208.000000)">
                        <path d="M38,27.75 C37.31,27.75 36.75,28.31 36.75,29 C36.75,29.69 37.31,30.25 38,30.25 C38.69,30.25 39.25,29.69 39.25,29 C39.25,28.31 38.69,27.75 38,27.75 L38,27.75 Z M44,27.75 C43.31,27.75 42.75,28.31 42.75,29 C42.75,29.69 43.31,30.25 44,30.25 C44.69,30.25 45.25,29.69 45.25,29 C45.25,28.31 44.69,27.75 44,27.75 L44,27.75 Z M41,18 C35.48,18 31,22.48 31,28 C31,33.52 35.48,38 41,38 C46.52,38 51,33.52 51,28 C51,22.48 46.52,18 41,18 L41,18 Z M41,36 C36.59,36 33,32.41 33,28 C33,27.71 33.02,27.42 33.05,27.14 C35.41,26.09 37.28,24.16 38.26,21.77 C40.07,24.33 43.05,26 46.42,26 C47.2,26 47.95,25.91 48.67,25.74 C48.88,26.45 49,27.21 49,28 C49,32.41 45.41,36 41,36 L41,36 Z" id="face-icon"></path>
                    </g>
                </g>
            </g>
        </g>
    </g>
</svg>