<?xml version="1.0" encoding="UTF-8" standalone="no"?>
<svg width="14px" height="20px" viewBox="0 0 14 20" version="1.1" xmlns="http://www.w3.org/2000/svg" xmlns:xlink="http://www.w3.org/1999/xlink" xmlns:sketch="http://www.bohemiancoding.com/sketch/ns">
    <!-- Generator: Sketch 3.4.4 (17249) - http://www.bohemiancoding.com/sketch -->
    <title>pin</title>
    <desc>Created with Sketch.</desc>
    <defs></defs>
    <g id="Welcome" stroke="none" stroke-width="1" fill="none" fill-rule="evenodd" sketch:type="MSPage">
        <g id="barcamp-2016" sketch:type="MSArtboardGroup" transform="translate(-994.000000, -1599.000000)" fill="#FFFFFF">
            <g id="Location" sketch:type="MSLayerGroup" transform="translate(-43.000000, 1532.000000)">
                <g id="parking-map-button" transform="translate(1016.000000, 50.000000)" sketch:type="MSShapeGroup">
                    <path d="M28,17 C24.13,17 21,20.13 21,24 C21,29.25 28,37 28,37 C28,37 35,29.25 35,24 C35,20.13 31.87,17 28,17 L28,17 Z M28,26.5 C26.62,26.5 25.5,25.38 25.5,24 C25.5,22.62 26.62,21.5 28,21.5 C29.38,21.5 30.5,22.62 30.5,24 C30.5,25.38 29.38,26.5 28,26.5 L28,26.5 Z" id="pin"></path>
                </g>
            </g>
        </g>
    </g>
</svg>