<?xml version="1.0" encoding="UTF-8" standalone="no"?>
<svg width="24px" height="16px" viewBox="0 0 24 16" version="1.1" xmlns="http://www.w3.org/2000/svg" xmlns:xlink="http://www.w3.org/1999/xlink" xmlns:sketch="http://www.bohemiancoding.com/sketch/ns">
    <!-- Generator: Sketch 3.4.4 (17249) - http://www.bohemiancoding.com/sketch -->
    <title>list checked</title>
    <desc>Created with Sketch.</desc>
    <defs></defs>
    <g id="Welcome" stroke="none" stroke-width="1" fill="none" fill-rule="evenodd" sketch:type="MSPage">
        <g id="barcamp-2016" sketch:type="MSArtboardGroup" transform="translate(-1030.000000, -2449.000000)" fill="#FFFFFF">
            <g id="Sessions" sketch:type="MSLayerGroup" transform="translate(117.000000, 2269.000000)">
                <g id="sessions-button" transform="translate(883.000000, 159.000000)" sketch:type="MSShapeGroup">
                    <path d="M43.7142857,25.5714286 L30,25.5714286 L30,27.8571429 L43.7142857,27.8571429 L43.7142857,25.5714286 L43.7142857,25.5714286 Z M43.7142857,21 L30,21 L30,23.2857143 L43.7142857,23.2857143 L43.7142857,21 L43.7142857,21 Z M30,32.4285714 L39.1428571,32.4285714 L39.1428571,30.1428571 L30,30.1428571 L30,32.4285714 L30,32.4285714 Z M52.2857143,27.2857143 L54,29 L46.0114286,37 L40.8571429,31.8571429 L42.5714286,30.1428571 L46.0114286,33.5714286 L52.2857143,27.2857143 L52.2857143,27.2857143 Z" id="list-checked"></path>
                </g>
            </g>
        </g>
    </g>
</svg>